<svg width="80" height="81" viewBox="0 0 80 81" fill="none" xmlns="http://www.w3.org/2000/svg">
<path fill-rule="evenodd" clip-rule="evenodd" d="M40.3562 2.75073L74.7123 23.1033V58.3875L40.3562 78.7454L6 58.3875V23.1033L40.3562 2.74536V2.75073ZM40.3562 21.9601C35.4498 21.9601 30.7444 23.9392 27.2751 27.4621C23.8057 30.9851 21.8567 35.7632 21.8567 40.7454C21.8567 45.7275 23.8057 50.5057 27.2751 54.0286C30.7444 57.5515 35.4498 59.5307 40.3562 59.5307H41.3181C46.4768 59.5307 51.4294 57.4482 55.0817 53.7448L55.4412 53.3798L51.699 49.5798L51.3396 49.9448C48.6821 52.6447 45.0773 54.1621 41.3181 54.1634H40.3562C36.8516 54.1634 33.4906 52.7498 31.0125 50.2334C28.5344 47.717 27.1423 44.3041 27.1423 40.7454C27.1423 37.1867 28.5344 33.7737 31.0125 31.2573C33.4906 28.741 36.8516 27.3273 40.3562 27.3273H41.3181C45.0762 27.3273 48.6809 28.8462 51.3396 31.5459L51.699 31.9109L55.4412 28.1109L55.0817 27.7459C53.2741 25.911 51.1283 24.4556 48.7667 23.4628C46.4051 22.4701 43.8741 21.9594 41.3181 21.9601H40.3562Z" fill="#343434"/>
</svg>
