<svg width="80" height="81" viewBox="0 0 80 81" fill="none" xmlns="http://www.w3.org/2000/svg">
<path d="M25.3189 2.74536H33.5184V6.15903H28.7475V9.57269H33.5184V12.9864H25.3189V2.74536ZM35.1563 2.74536H43.359V5.71569H38.5882V6.30786H43.359V13.1352H35.1563V10.0192H39.9272V9.42386H35.1563V2.74536ZM45.0002 2.74536H53.1965V5.71569H48.4256V6.30786H53.1965V13.1352H45.0002V10.0192H49.771V9.42386H45.0002V2.74536Z" fill="#343434"/>
<path fill-rule="evenodd" clip-rule="evenodd" d="M39.5964 78.7454L17.5106 72.6401L11 17.6826H68.25L61.7426 72.6337L39.5964 78.7454ZM23.8717 42.5599L24.4792 49.2986H47.9422L47.1566 58.0386L39.6059 60.0716H39.5996L32.0616 58.0449L31.5782 52.6711H24.7813L25.7292 63.2541L39.5964 67.0857L53.4859 63.2541L55.1779 44.3681L55.3433 42.5599L56.5646 28.9147H22.6536L23.2706 35.6566H49.1476L48.5306 42.5599H23.8717Z" fill="#343434"/>
</svg>
