<svg width="32" height="32" viewBox="0 0 32 32" fill="none" xmlns="http://www.w3.org/2000/svg">
<rect width="32" height="32" rx="16" fill="url(#paint0_linear_646_236)"/>
<path d="M21.1534 10.884L20.8494 11.348C19.7081 13.1187 18.7268 14.6867 17.9054 16.052C17.0948 17.4067 16.4174 18.6547 15.8734 19.796V22.5H11.6974V19.524C11.3028 18.724 10.8388 17.9027 10.3054 17.06C9.7721 16.2067 9.01477 15.0387 8.03344 13.556C7.26544 12.4253 6.67877 11.5347 6.27344 10.884H10.7534C11.0734 11.5347 11.5961 12.5 12.3214 13.78C13.0468 15.0813 13.5428 15.9987 13.8094 16.532C14.1828 15.7533 14.6841 14.7987 15.3134 13.668C16.0494 12.3453 16.5454 11.4173 16.8014 10.884H21.1534ZM23.5432 22.66C23.0739 22.66 22.6739 22.4947 22.3432 22.164C22.0125 21.8227 21.8472 21.4173 21.8472 20.948C21.8472 20.4787 22.0125 20.0787 22.3432 19.748C22.6739 19.4173 23.0739 19.252 23.5432 19.252C24.0019 19.252 24.3965 19.4227 24.7272 19.764C25.0685 20.0947 25.2392 20.4893 25.2392 20.948C25.2392 21.4173 25.0685 21.8227 24.7272 22.164C24.3965 22.4947 24.0019 22.66 23.5432 22.66Z" fill="#343434"/>
<defs>
<linearGradient id="paint0_linear_646_236" x1="16" y1="0" x2="16" y2="32" gradientUnits="userSpaceOnUse">
<stop stop-color="#CDB4FF"/>
<stop offset="1" stop-color="#F2F2F2"/>
</linearGradient>
</defs>
</svg>
