<svg width="41" height="41" viewBox="0 0 41 41" fill="none" xmlns="http://www.w3.org/2000/svg">
<path d="M20.8 2.24536C18.3049 2.24536 15.8342 2.73576 13.529 3.68855C11.2238 4.64135 9.12927 6.03788 7.36496 7.79841C3.80177 11.354 1.79999 16.1763 1.79999 21.2047C1.79999 29.5847 7.25299 36.6944 14.796 39.216C15.746 39.3677 16.05 38.7799 16.05 38.268V35.0639C10.787 36.2015 9.66599 32.5234 9.66599 32.5234C8.79199 30.3241 7.55699 29.7363 7.55699 29.7363C5.82799 28.5609 7.68999 28.5988 7.68999 28.5988C9.58999 28.7315 10.597 30.5516 10.597 30.5516C12.25 33.4334 15.043 32.5802 16.126 32.1252C16.297 30.8929 16.791 30.0587 17.323 29.5847C13.105 29.1107 8.67799 27.4802 8.67799 20.2567C8.67799 18.1522 9.39999 16.4648 10.635 15.1187C10.445 14.6447 9.77999 12.673 10.825 10.1135C10.825 10.1135 12.421 9.60157 16.05 12.0473C17.551 11.6302 19.185 11.4217 20.8 11.4217C22.415 11.4217 24.049 11.6302 25.55 12.0473C29.179 9.60157 30.775 10.1135 30.775 10.1135C31.82 12.673 31.155 14.6447 30.965 15.1187C32.2 16.4648 32.922 18.1522 32.922 20.2567C32.922 27.4991 28.476 29.0917 24.239 29.5657C24.923 30.1534 25.55 31.31 25.55 33.0732V38.268C25.55 38.7799 25.854 39.3866 26.823 39.216C34.366 36.6754 39.8 29.5847 39.8 21.2047C39.8 18.7149 39.3085 16.2495 38.3537 13.9493C37.3989 11.649 35.9993 9.55895 34.235 7.79841C32.4707 6.03788 30.3762 4.64135 28.071 3.68855C25.7658 2.73576 23.2951 2.24536 20.8 2.24536Z" fill="#F2F2F2"/>
</svg>
