<svg width="40" height="40" viewBox="0 0 40 40" fill="none" xmlns="http://www.w3.org/2000/svg">
<path d="M20 1.5C17.5049 1.5 15.0342 1.9904 12.729 2.94319C10.4238 3.89598 8.32928 5.29252 6.56497 7.05305C3.00178 10.6086 1 15.431 1 20.4593C1 28.8393 6.453 35.949 13.996 38.4706C14.946 38.6223 15.25 38.0346 15.25 37.5227V34.3185C9.987 35.4561 8.866 31.778 8.866 31.778C7.992 29.5787 6.757 28.991 6.757 28.991C5.028 27.8155 6.89 27.8534 6.89 27.8534C8.79 27.9861 9.797 29.8062 9.797 29.8062C11.45 32.688 14.243 31.8349 15.326 31.3799C15.497 30.1475 15.991 29.3133 16.523 28.8393C12.305 28.3653 7.878 26.7348 7.878 19.5113C7.878 17.4069 8.6 15.7195 9.835 14.3734C9.645 13.8994 8.98 11.9276 10.025 9.36811C10.025 9.36811 11.621 8.85621 15.25 11.302C16.751 10.8849 18.385 10.6763 20 10.6763C21.615 10.6763 23.249 10.8849 24.75 11.302C28.379 8.85621 29.975 9.36811 29.975 9.36811C31.02 11.9276 30.355 13.8994 30.165 14.3734C31.4 15.7195 32.122 17.4069 32.122 19.5113C32.122 26.7538 27.676 28.3464 23.439 28.8203C24.123 29.4081 24.75 30.5646 24.75 32.3278V37.5227C24.75 38.0346 25.054 38.6413 26.023 38.4706C33.566 35.9301 39 28.8393 39 20.4593C39 17.9695 38.5086 15.5041 37.5537 13.2039C36.5989 10.9036 35.1993 8.81358 33.435 7.05305C31.6707 5.29252 29.5762 3.89598 27.271 2.94319C24.9658 1.9904 22.4951 1.5 20 1.5Z" fill="#343434"/>
</svg>
