<svg width="51" height="35" viewBox="0 0 51 35" fill="none" xmlns="http://www.w3.org/2000/svg">
<path d="M21.5173 10.576C21.4053 13.28 21.3493 16.184 21.3493 19.288C21.3493 22.392 21.4053 25.296 21.5173 28H15.8773V21.472H7.04531V28H1.40531C1.53331 24.896 1.59731 21.992 1.59731 19.288C1.59731 16.584 1.53331 13.68 1.40531 10.576H7.04531V17.104H15.8773V10.576H21.5173Z" fill="#343434"/>
<path d="M37.3806 15.352C35.4766 15.256 34.0686 15.2 33.1566 15.184V23.392C34.0846 23.376 35.4926 23.32 37.3806 23.224V28H23.4366V23.224C25.2766 23.32 26.6766 23.376 27.6366 23.392V15.184C26.6766 15.2 25.2766 15.256 23.4366 15.352V10.576H37.3806V15.352Z" fill="#343434"/>
<path d="M49.8444 9.28003C49.8444 10.352 49.8044 12.408 49.7244 15.448C49.6924 15.928 49.6764 16.28 49.6764 16.504C49.3564 18.76 49.1564 20.728 49.0764 22.408H44.6364C44.5564 20.728 44.3564 18.76 44.0364 16.504L44.0124 15.448C43.9164 12.984 43.8684 10.928 43.8684 9.28003H49.8444ZM49.6284 28.48H44.0604V24.208H49.6284V28.48Z" fill="#343434"/>
</svg>
