<svg width="80" height="81" viewBox="0 0 80 81" fill="none" xmlns="http://www.w3.org/2000/svg">
<mask id="mask0_804_134" style="mask-type:luminance" maskUnits="userSpaceOnUse" x="0" y="0" width="80" height="81">
<path d="M0 0.745361H80V80.7454H0V0.745361Z" fill="white"/>
</mask>
<g mask="url(#mask0_804_134)">
<path d="M17.5867 2.74536H21.013V6.13053H24.148V2.74536H27.5743V12.9927H24.148V9.56319H21.013V12.9927H17.5898L17.5867 2.74536ZM32.0773 6.14319H29.0627V2.74536H38.5215V6.14319H35.5037V12.9927H32.0773V6.14319ZM40.0225 2.74536H43.5945L45.7922 6.34586L47.9867 2.74536H51.5587V12.9927H48.1482V7.91336L45.7922 11.5582H45.732L43.3728 7.91653V12.9927H40.0225V2.74536ZM53.2624 2.74536H56.6919V9.60753H61.5052V12.9959H53.2624V2.74536Z" fill="#343434"/>
<path fill-rule="evenodd" clip-rule="evenodd" d="M17.479 72.64L11 17.6825H68L61.5178 72.6337L39.4683 78.7453L17.479 72.64ZM30.5795 42.5567L29.9652 35.6533H55.7577L56.3593 28.9147H22.6027L24.4203 49.2985H47.7808L46.9987 58.0385L39.481 60.0715H39.4747L31.9697 58.0448L31.4883 52.671H24.718L25.6617 63.254L39.4683 67.0857L53.2972 63.254L54.9818 44.368L55.1465 42.5598H30.5795V42.5567Z" fill="#343434"/>
</g>
</svg>
