<svg width="40" height="40" viewBox="0 0 40 40" fill="none" xmlns="http://www.w3.org/2000/svg">
<path fill-rule="evenodd" clip-rule="evenodd" d="M3.33335 20.3333C3.33335 22.5657 3.77307 24.7763 4.6274 26.8389C5.48173 28.9014 6.73394 30.7755 8.31254 32.3541C9.89113 33.9327 11.7652 35.1849 13.8277 36.0392C15.8903 36.8935 18.1009 37.3333 20.3334 37.3333C22.5658 37.3333 24.7764 36.8935 26.839 36.0392C28.9015 35.1849 30.7756 33.9327 32.3542 32.3541C33.9328 30.7755 35.185 28.9014 36.0393 26.8389C36.8936 24.7763 37.3334 22.5657 37.3334 20.3333C37.3334 15.8246 35.5423 11.5006 32.3542 8.31244C29.1661 5.12432 24.842 3.33325 20.3334 3.33325C15.8247 3.33325 11.5007 5.12432 8.31254 8.31244C5.12442 11.5006 3.33335 15.8246 3.33335 20.3333ZM35.3334 20.3333C35.3334 24.3115 33.753 28.1268 30.94 30.9399C28.1269 33.7529 24.3116 35.3333 20.3334 35.3333C16.3551 35.3333 12.5398 33.7529 9.72675 30.9399C6.9137 28.1268 5.33335 24.3115 5.33335 20.3333C5.33335 16.355 6.9137 12.5397 9.72675 9.72665C12.5398 6.9136 16.3551 5.33325 20.3334 5.33325C24.3116 5.33325 28.1269 6.9136 30.94 9.72665C33.753 12.5397 35.3334 16.355 35.3334 20.3333Z" fill="#343434"/>
<path fill-rule="evenodd" clip-rule="evenodd" d="M13.3334 20.3333C13.3334 29.1253 16.2174 36.3333 20.3334 36.3333C24.4494 36.3333 27.3334 29.1253 27.3334 20.3333C27.3334 11.5413 24.4494 4.33325 20.3334 4.33325C16.2174 4.33325 13.3334 11.5413 13.3334 20.3333ZM25.3334 20.3333C25.3334 28.1113 22.8434 34.3333 20.3334 34.3333C17.8234 34.3333 15.3334 28.1113 15.3334 20.3333C15.3334 12.5553 17.8234 6.33325 20.3334 6.33325C22.8434 6.33325 25.3334 12.5553 25.3334 20.3333Z" fill="#343434"/>
<path d="M7.80335 10.9571L9.14335 9.47314C9.35735 9.66514 9.58535 9.85314 9.82935 10.0351C12.4654 12.0111 16.6254 13.2151 21.1594 13.2151C25.0254 13.2151 28.6334 12.3411 31.2694 10.8351C31.8767 10.4915 32.4505 10.0918 32.9834 9.64114L34.2834 11.1611C33.6874 11.6711 33.0114 12.1411 32.2634 12.5691C29.3094 14.2591 25.3594 15.2151 21.1594 15.2151C16.2194 15.2151 11.6354 13.8891 8.62935 11.6351C8.34372 11.4213 8.0681 11.1964 7.80335 10.9571ZM7.80335 29.7331L9.14335 31.2131C9.35735 31.0211 9.58535 30.8331 9.82935 30.6531C12.4654 28.6771 16.6254 27.4731 21.1594 27.4731C25.0254 27.4731 28.6334 28.3451 31.2694 29.8531C31.9114 30.2211 32.4854 30.6211 32.9834 31.0451L34.2834 29.5251C33.6555 28.9937 32.9792 28.5224 32.2634 28.1171C29.3094 26.4291 25.3594 25.4731 21.1594 25.4731C16.2194 25.4731 11.6354 26.7991 8.62935 29.0511C8.33735 29.2711 8.06135 29.4991 7.80335 29.7331ZM4.33335 21.3331V19.3331H36.3334V21.3331H4.33335Z" fill="#343434"/>
</svg>
