<svg width="80" height="81" viewBox="0 0 80 81" fill="none" xmlns="http://www.w3.org/2000/svg">
<path d="M57.7035 18.2552C57.7035 18.2552 31.3656 24.7556 43.9955 39.0869C47.7305 43.3065 43.0328 47.1079 43.0328 47.1079C43.0328 47.1079 52.4667 42.3562 48.0771 36.2739C43.9955 30.6858 40.915 27.9108 57.7035 18.2552ZM40.4915 22.8169C56.0862 10.6523 48.0771 2.74536 48.0771 2.74536C51.3115 15.29 36.6794 19.0915 31.4041 26.9224C27.7846 32.2444 33.1754 37.9845 40.3759 44.561C37.642 38.0986 27.9771 32.5485 40.4915 22.8169ZM30.249 61.5533C18.3893 64.8226 37.488 71.5511 52.5437 65.2027C51.0805 64.6325 49.6558 63.9482 48.3081 63.1499C43.0713 64.3284 37.6806 64.5565 32.3668 63.8342C27.3226 63.226 30.249 61.5533 30.249 61.5533ZM50.7339 55.167C43.9955 56.6115 37.026 56.9536 30.172 56.1553C25.1277 55.6611 28.4392 53.2282 28.4392 53.2282C15.3473 57.5238 35.6783 62.3516 53.8529 57.1057C52.7362 56.6875 51.6581 55.9653 50.7339 55.167ZM63.9029 67.7116C63.9029 67.7116 66.0977 69.4983 61.554 70.8668C52.7747 73.4518 25.2432 74.2501 17.6191 70.9809C14.8852 69.8024 20.045 68.1678 21.6622 67.8257C22.5479 67.5976 23.4335 67.5216 24.3191 67.5216C21.2772 65.4688 4.56575 71.7031 15.8864 73.4518C46.5753 78.3936 71.8735 71.1709 63.9029 67.7116ZM53.3523 49.2367C54.469 48.5145 55.6627 47.9062 56.8948 47.374C56.8948 47.374 51.0805 48.3624 45.2662 48.8946C39.1053 49.5028 32.9059 49.5789 26.745 49.1227C17.6962 47.9443 31.7122 44.561 31.7122 44.561C27.4766 44.561 23.318 45.5494 19.5444 47.4121C11.6508 51.2135 39.1823 52.9241 53.3523 49.2367ZM56.8178 58.4362C56.7408 58.5882 56.6638 58.7023 56.5098 58.8163C75.8011 53.8365 68.716 41.1777 59.4747 44.3329C58.9741 44.561 58.5506 44.8651 58.281 45.2833C58.8201 45.0932 59.3592 44.9411 59.9368 44.8271C64.5574 43.9147 71.1804 51.0234 56.8178 58.4362ZM57.3184 75.9607C45.7282 77.9375 33.8685 78.0895 22.2013 76.4929C22.2013 76.4929 23.9726 77.9375 33.0214 78.5077C46.8834 79.382 68.177 78.0135 68.6775 71.5511C68.7931 71.5891 67.7919 74.022 57.3184 75.9607Z" fill="#343434"/>
</svg>
