<?xml version="1.0" encoding="utf-8"?>
<svg width="41" height="41" viewBox="0 0 41 41" fill="none" xmlns="http://www.w3.org/2000/svg">
  <path d="M20.8 1.74536C10.3064 1.74536 1.79999 10.2518 1.79999 20.7454C1.79999 31.2389 10.3064 39.7454 20.8 39.7454C31.2935 39.7454 39.8 31.2389 39.8 20.7454C39.8 10.2518 31.2935 1.74536 20.8 1.74536ZM16.1489 28.6205H12.3014V16.2388H16.1489V28.6205ZM14.2014 14.7188C12.9862 14.7188 12.2005 13.8579 12.2005 12.7931C12.2005 11.7065 13.01 10.8713 14.2509 10.8713C15.4919 10.8713 16.2519 11.7065 16.2756 12.7931C16.2756 13.8579 15.4919 14.7188 14.2014 14.7188ZM30.201 28.6205H26.3535V21.7587C26.3535 20.1615 25.7954 19.0769 24.4041 19.0769C23.3412 19.0769 22.7099 19.8112 22.4308 20.5178C22.3279 20.7691 22.3022 21.1254 22.3022 21.4796V28.6185H18.4527V20.1872C18.4527 18.6415 18.4032 17.3491 18.3518 16.2368H21.6946L21.8707 17.9567H21.9479C22.4546 17.1492 23.6955 15.9578 25.7717 15.9578C28.303 15.9578 30.201 17.6539 30.201 21.2995V28.6205Z" style="fill: rgb(50, 50, 50);"/>
</svg>