<svg width="80" height="81" viewBox="0 0 80 81" fill="none" xmlns="http://www.w3.org/2000/svg">
<path d="M53.9492 20.0099C53.585 20.0099 53.338 20.0546 53.0815 20.1152V20.1567H53.1258C53.2968 20.4886 53.5882 20.7311 53.8035 21.0278C53.9745 21.3692 54.1202 21.7106 54.2912 22.0489L54.3355 22.001C54.6332 21.7904 54.7788 21.4522 54.7788 20.9385C54.6522 20.7885 54.6332 20.6385 54.5255 20.4917C54.3988 20.278 54.1265 20.1727 53.9555 20.0036L53.9492 20.0099ZM20.2717 62.1091H17.3362C17.2536 57.4084 16.9683 52.7135 16.4812 48.0378H16.4558L11.9908 62.1091H9.75833L5.325 48.0378H5.29333C4.94656 52.7209 4.74063 57.4135 4.67583 62.1091H2C2.17417 55.8361 2.608 49.9523 3.29833 44.4641H6.94L11.1675 57.4315H11.1928L15.4583 44.4641H18.9258C19.6922 50.8935 20.1418 56.7805 20.2812 62.1091H20.2717ZM32.9922 49.0907C31.7952 55.6159 30.2182 60.3638 28.2675 63.3217C26.7412 65.6063 25.0692 66.7454 23.2547 66.7454C22.7702 66.7454 22.178 66.5986 21.4623 66.305V64.7288C21.8107 64.783 22.2223 64.8117 22.6847 64.8117C23.5333 64.8117 24.2142 64.5724 24.7335 64.1034C25.3573 63.529 25.6677 62.8845 25.6677 62.173C25.6677 61.6784 25.4238 60.6733 24.9393 59.1609L21.7283 49.0907H24.61L26.9122 56.621C27.4315 58.3313 27.65 59.5246 27.5613 60.2043C28.828 56.8093 29.7083 53.0984 30.2055 49.0907H32.9922ZM72.0213 62.1091H63.693V44.4641H66.4955V59.9394H72.0213V62.1091ZM61.508 62.5399L58.2907 60.9445C58.5757 60.702 58.8512 60.4404 59.0982 60.1468C60.4693 58.5323 61.1502 56.1328 61.1502 52.958C61.1502 47.1188 58.8765 44.1961 54.326 44.1961C52.0967 44.1961 50.355 44.9363 49.101 46.4201C47.7393 48.041 47.0553 50.4277 47.0553 53.5834C47.0553 56.6848 47.657 58.963 48.873 60.4117C49.9813 61.7199 51.6502 62.374 53.8858 62.374C54.7218 62.374 55.4882 62.2687 56.1817 62.0613L60.3775 64.5246L61.5175 62.5399H61.508ZM51.0833 58.577C50.3708 57.4283 50.0162 55.5776 50.0162 53.0378C50.0162 48.593 51.3588 46.369 54.0378 46.369C55.4407 46.369 56.4762 46.9019 57.1317 47.9644C57.841 49.1195 58.1957 50.951 58.1957 53.4621C58.1957 57.942 56.853 60.1883 54.174 60.1883C52.7648 60.1883 51.7357 59.6554 51.077 58.5929L51.0833 58.577ZM45.833 57.2209C45.833 58.7205 45.2883 59.9522 44.199 60.9094C43.1097 61.8667 41.6562 62.3453 39.8163 62.3453C38.0968 62.3453 36.447 61.7965 34.8352 60.702L35.5857 59.1832C36.9727 59.8852 38.2235 60.2298 39.354 60.2298C40.4053 60.2298 41.2318 59.9968 41.8335 59.5278C42.1342 59.2994 42.377 59.0025 42.5421 58.6615C42.7072 58.3204 42.79 57.9449 42.7835 57.5655C42.7835 56.5125 42.0552 55.6191 40.7315 54.8693C39.5028 54.1896 37.0487 52.7729 37.0487 52.7729C35.7123 51.7933 35.0473 50.7436 35.0473 49.0174C35.0473 47.5815 35.5445 46.4328 36.5357 45.5554C37.5332 44.6683 38.8157 44.2312 40.399 44.2312C42.0203 44.2312 43.5023 44.6651 44.8323 45.5394L44.1578 47.0582C43.0951 46.5878 41.9492 46.3382 40.7885 46.3243C39.8923 46.3243 39.1988 46.5413 38.7175 46.9816C38.4732 47.1855 38.2763 47.4409 38.1406 47.7298C38.005 48.0187 37.9338 48.334 37.9322 48.6536C37.9322 49.7002 38.6732 50.6 40.0412 51.3658C41.2857 52.0518 43.8 53.5036 43.8 53.5036C45.1712 54.4768 45.852 55.5138 45.852 57.2304L45.833 57.2209ZM75.5427 38.5484C73.8485 38.5037 72.5343 38.676 71.4355 39.1483C71.1188 39.2759 70.6122 39.2759 70.5678 39.6811C70.742 39.8502 70.7673 40.1278 70.9162 40.364C71.1695 40.7915 71.6065 41.3627 72.0118 41.6626C72.4552 42.0136 72.8985 42.3518 73.364 42.6517C74.1873 43.1623 75.1215 43.4654 75.929 43.9791C76.3882 44.279 76.8568 44.6588 77.3223 44.9778C77.5535 45.1374 77.7023 45.4245 78 45.5266V45.4628C77.8543 45.2714 77.81 44.9938 77.6675 44.78C77.4553 44.5662 77.2432 44.3748 77.0342 44.1642C76.4124 43.3386 75.6705 42.6125 74.8333 42.0104C74.1557 41.5445 72.6737 40.8936 72.395 40.1119L72.3538 40.0672C72.8162 40.0257 73.3672 39.8566 73.8105 39.729C74.5293 39.5375 75.188 39.579 75.9322 39.3908C76.2678 39.3046 76.6067 39.1993 76.9455 39.0908V38.8994C76.5655 38.5165 76.2805 37.9964 75.8878 37.639C74.7918 36.6737 73.623 35.7957 72.3918 35.013C71.7268 34.5854 70.8845 34.311 70.1847 33.9473C69.9313 33.8197 69.507 33.7558 69.3613 33.5421C68.9813 33.0762 68.7597 32.4572 68.4905 31.902C67.8687 30.6866 67.2909 29.4488 66.7583 28.1911C66.3783 27.3551 66.1472 26.5223 65.6817 25.7565C63.4967 22.1286 61.1312 19.9302 57.4927 17.7796C56.7105 17.3329 55.7732 17.1414 54.782 16.9053C54.2532 16.8798 53.7243 16.8415 53.1987 16.8192C52.8503 16.6692 52.5147 16.264 52.217 16.0693C51.0137 15.3035 47.8977 13.6443 47.011 15.8396C46.441 17.2244 47.8565 18.59 48.3473 19.292C48.7115 19.7802 49.1707 20.3386 49.424 20.8874C49.5728 21.2575 49.614 21.6372 49.7628 22.0233C50.0985 22.9614 50.4183 24.008 50.8617 24.8855C51.0928 25.3322 51.3462 25.8012 51.6438 26.2033C51.8148 26.4362 52.1062 26.5447 52.1727 26.9276C51.875 27.3615 51.856 27.9933 51.685 28.523C50.925 30.9384 51.2227 33.9249 52.2993 35.7022C52.6382 36.2319 53.4457 37.4061 54.5255 36.9562C55.4755 36.5733 55.2665 35.3608 55.5388 34.2919C55.6022 34.0366 55.561 33.8675 55.6908 33.6952V33.7431C55.9885 34.3429 56.2862 34.9141 56.5585 35.514C57.2108 36.5605 58.3508 37.6454 59.304 38.3697C59.8107 38.7526 60.2128 39.4163 60.8462 39.6524V39.5886H60.7987C60.6625 39.4035 60.482 39.3142 60.311 39.1642C59.9095 38.7682 59.5389 38.3415 59.2027 37.8879C58.3105 36.6595 57.5193 35.3597 56.8372 34.0015C56.4888 33.3315 56.1975 32.6103 55.9188 31.9499C55.7922 31.6946 55.7922 31.3117 55.58 31.1841C55.2633 31.6499 54.7978 32.0552 54.5667 32.6295C54.1645 33.5484 54.1233 34.678 53.9713 35.8522C53.8858 35.8745 53.927 35.8522 53.8858 35.8969C53.2082 35.7309 52.977 35.0226 52.7237 34.4291C52.0903 32.9135 51.9858 30.4789 52.5337 28.7335C52.6825 28.2868 53.3158 26.8765 53.0625 26.4489C52.9295 26.0437 52.5115 25.8108 52.2803 25.4821C51.983 25.0544 51.7284 24.598 51.5203 24.1197C51.0137 22.9263 50.7603 21.6053 50.2093 20.412C49.956 19.86 49.5127 19.2824 49.1517 18.7751C48.7495 18.2008 48.3062 17.7955 47.9863 17.1159C47.8818 16.883 47.733 16.4969 47.9008 16.2416C47.9452 16.0693 48.0338 16.0023 48.1985 15.9545C48.4772 15.7247 49.2593 16.0246 49.5348 16.1523C50.317 16.4714 50.9757 16.7713 51.6312 17.218C51.9288 17.4286 52.2487 17.8338 52.6287 17.9391H53.072C53.7497 18.0891 54.5128 17.9838 55.1462 18.172C56.2703 18.5358 57.2837 19.0655 58.1925 19.6398C60.9929 21.4423 63.2707 23.9587 64.795 26.9339C65.0483 27.4253 65.1592 27.8752 65.3903 28.3857C65.8337 29.4387 66.3815 30.5012 66.8312 31.5191C67.2745 32.5242 67.702 33.5484 68.3385 34.3812C68.6552 34.8279 69.9282 35.0609 70.4982 35.2938C70.9193 35.4852 71.5748 35.6607 71.9548 35.8937C72.6832 36.3404 73.3925 36.8509 74.0765 37.3423C74.4248 37.5848 75.4793 38.1176 75.5427 38.5484Z" fill="#343434"/>
</svg>
