<svg width="80" height="81" viewBox="0 0 80 81" fill="none" xmlns="http://www.w3.org/2000/svg">
<path d="M40 59.7454C19.005 59.7454 2 51.2454 2 40.7454C2 30.2454 19.005 21.7454 40 21.7454C60.995 21.7454 78 30.2454 78 40.7454C78 51.2454 60.995 59.7454 40 59.7454ZM23.565 34.9016C25.275 34.9016 26.4467 35.2141 27.0167 35.8704C27.5867 36.4954 27.7133 37.6204 27.4283 39.0891C27.1117 40.7454 26.51 41.8079 25.5917 42.4954C24.705 43.1829 23.3433 43.5266 21.5067 43.5266H18.7517L20.43 34.9016H23.565ZM12.4817 52.2454H17.0417L18.1183 46.7766H22.0133C23.7233 46.7766 25.1167 46.5891 26.225 46.2454C27.3333 45.8704 28.3467 45.2766 29.265 44.4329C30.025 43.7454 30.6267 42.9954 31.1017 42.1516C31.5767 41.3391 31.925 40.4016 32.0833 39.4016C32.59 36.9641 32.2417 35.0579 31.0383 33.7141C29.8033 32.3391 27.9033 31.6829 25.275 31.6829H16.535L12.4817 52.2454ZM35.44 26.2141L31.3867 46.7766H35.8833L38.2267 34.9954H41.8367C42.9767 34.9954 43.7367 35.1829 44.085 35.5579C44.4333 35.9329 44.4967 36.6204 44.3067 37.6204L42.5017 46.7766H47.0933L48.9617 37.1829C49.3733 35.2454 49.0567 33.8391 48.1067 32.9329C47.1567 32.0891 45.415 31.6829 42.8817 31.6829H38.86L40 26.2141H35.44ZM59 34.9016C60.7417 34.9016 61.8817 35.2141 62.4517 35.8704C63.0217 36.4954 63.1483 37.6204 62.8633 39.0891C62.5467 40.7454 61.945 41.8079 61.0583 42.4954C60.14 43.1829 58.7783 43.5266 56.9417 43.5266H54.25L55.8333 34.9016H59ZM47.9167 52.2454H52.4767L53.5533 46.7766H57.4167C59.1583 46.7766 60.5833 46.5891 61.6917 46.2454C62.8 45.8704 63.75 45.2766 64.7 44.4329C65.46 43.7454 66.0933 42.9954 66.5367 42.1516C67.0117 41.3391 67.36 40.4016 67.55 39.4016C68.025 36.9641 67.6767 35.0579 66.4733 33.7141C65.3333 32.3391 63.3383 31.6829 60.71 31.6829H52.0017L47.9167 52.2454Z" fill="#343434"/>
</svg>
