<svg width="36" height="36" viewBox="0 0 36 36" fill="none" xmlns="http://www.w3.org/2000/svg">
<circle cx="18" cy="18" r="18" fill="#CDB4FF"/>
<circle cx="18" cy="18" r="14" fill="#F2F2F2"/>
<circle cx="11.5" cy="13.5" r="2.5" fill="#CDB4FF"/>
<path d="M25.8065 24.2496C24.8479 25.4471 23.6267 26.4079 22.2373 27.0579C20.848 27.7078 19.3277 28.0295 17.7941 27.9979C16.2606 27.9663 14.7549 27.5824 13.3934 26.8758C12.032 26.1692 10.8513 25.1589 9.94283 23.923L12.6619 21.9241C13.2639 22.7429 14.0461 23.4123 14.948 23.8804C15.85 24.3485 16.8476 24.6029 17.8636 24.6238C18.8796 24.6447 19.8868 24.4317 20.8073 24.001C21.7278 23.5704 22.5369 22.9338 23.172 22.1405L25.8065 24.2496Z" fill="#CDB4FF"/>
</svg>
