<svg width="40" height="40" viewBox="0 0 40 40" fill="none" xmlns="http://www.w3.org/2000/svg">
<g clip-path="url(#clip0_128_400)">
<path d="M33.9093 23.727C34.8978 20.038 34.3803 16.1074 32.4708 12.8C30.5612 9.49254 27.416 7.07913 23.727 6.09067C20.038 5.10221 16.1075 5.61967 12.8 7.52923C9.49255 9.43879 7.07913 12.584 6.09067 16.273C5.10221 19.962 5.61968 23.8925 7.52924 27.2C9.43879 30.5075 12.584 32.9209 16.273 33.9093C19.962 34.8978 23.8925 34.3803 27.2 32.4708C30.5075 30.5612 32.9209 27.416 33.9093 23.727ZM37.3867 24.6587C36.1511 29.27 33.1343 33.2015 29 35.5885C24.8657 37.9754 19.9525 38.6222 15.3413 37.3867C13.058 36.7749 10.9176 35.7193 9.04229 34.2804C7.16697 32.8414 5.59344 31.0471 4.41154 29C2.0246 24.8657 1.37776 19.9525 2.61334 15.3413C3.84891 10.73 6.86569 6.79849 11 4.41154C15.1343 2.02459 20.0475 1.37776 24.6587 2.61333C26.942 3.22513 29.0824 4.28065 30.9577 5.71964C32.833 7.15862 34.4066 8.95289 35.5885 11C36.7704 13.0471 37.5375 15.307 37.846 17.6505C38.1545 19.9941 37.9985 22.3755 37.3867 24.6587ZM17.6874 14.7216C17.3147 16.1125 15.7715 17.0035 14.3805 16.6308C12.9896 16.2581 12.0987 14.7149 12.4714 13.324C12.8441 11.933 14.3872 11.0421 15.7782 11.4148C17.1691 11.7875 18.0601 13.3306 17.6874 14.7216ZM29.858 17.9827C29.4853 19.3736 27.9421 20.2646 26.5512 19.8919C25.1603 19.5192 24.2693 17.976 24.642 16.5851C25.0147 15.1941 26.5579 14.3032 27.9488 14.6759C29.3398 15.0486 30.2307 16.5918 29.858 17.9827ZM17.5635 29.0932C14.5208 28.2779 12.1834 26.2913 11.1217 23.9942L14.2521 22.1869C14.6991 23.6483 16.3219 25.0335 18.4952 25.6159C20.6686 26.1982 22.7665 25.81 23.8844 24.7678L25.6917 27.8982C23.6238 29.3567 20.6061 29.9085 17.5635 29.0932Z" fill="#CDB4FF"/>
</g>
<defs>
<clipPath id="clip0_128_400">
<rect width="40" height="40" fill="white"/>
</clipPath>
</defs>
</svg>
